<svg xmlns="http://www.w3.org/2000/svg" viewBox="0 0 81 81"><defs><style>.cls-1{fill:#3757a9;}.cls-2{fill:#fff;}</style></defs><g id="Camada_2" data-name="Camada 2"><g id="Camada_1-2" data-name="Camada 1"><rect class="cls-1" width="81" height="81" rx="40.5"/><path class="cls-2" d="M50,59.05A27.44,27.44,0,0,1,38.3,61.41c-12.34,0-20.37-8.36-20.37-20.87s8.62-21.71,22-21.71a24.72,24.72,0,0,1,10.31,2.11l-1.69,5.74a17.27,17.27,0,0,0-8.62-1.94c-9.38,0-14.45,6.93-14.45,15.46,0,9.47,6.09,15.3,14.2,15.3a21.14,21.14,0,0,0,9.13-2Z"/><path class="cls-2" d="M56.13,56.17a5,5,0,0,1,5.07-5.32c3,0,5,2.2,5,5.32s-1.94,5.33-5.07,5.33C58.15,61.5,56.13,59.22,56.13,56.17Z"/></g></g></svg>