<svg xmlns="http://www.w3.org/2000/svg" viewBox="0 0 54.33 48.05"><defs><style>.cls-1{fill:#fff;}</style></defs><g id="Camada_2" data-name="Camada 2"><g id="Camada_1-2" data-name="Camada 1"><path class="cls-1" d="M36.16,45.29A30.71,30.71,0,0,1,22.93,48C9,48,0,38.54,0,24.45S9.71,0,24.74,0A28,28,0,0,1,36.35,2.38l-1.9,6.47a19.45,19.45,0,0,0-9.71-2.19c-10.56,0-16.27,7.8-16.27,17.41,0,10.66,6.85,17.23,16,17.23A23.74,23.74,0,0,0,34.73,39Z"/><path class="cls-1" d="M43,42.06c0-3.52,2.38-6,5.71-6s5.61,2.48,5.61,6-2.19,6-5.71,6C45.29,48.05,43,45.48,43,42.06Z"/></g></g></svg>