<svg xmlns="http://www.w3.org/2000/svg" viewBox="0 0 102.18 81"><defs><style>.cls-1{fill:#3757a9;}.cls-2{fill:#fff;}</style></defs><g id="Camada_2" data-name="Camada 2"><g id="Camada_1-2" data-name="Camada 1"><rect class="cls-1" width="102.18" height="81" rx="7"/><path class="cls-2" d="M61.58,61.41a30.69,30.69,0,0,1-13.22,2.67c-13.9,0-22.94-9.42-22.94-23.51s9.71-24.45,24.74-24.45A28,28,0,0,1,61.77,18.5L59.87,25a19.45,19.45,0,0,0-9.71-2.19c-10.56,0-16.27,7.8-16.27,17.41,0,10.66,6.85,17.23,16,17.23a23.74,23.74,0,0,0,10.28-2.29Z"/><path class="cls-2" d="M68.43,58.18c0-3.52,2.38-6,5.71-6s5.62,2.48,5.62,6-2.19,6-5.71,6C70.72,64.17,68.43,61.6,68.43,58.18Z"/></g></g></svg>